<svg width="33" height="33" viewBox="0 0 33 33" fill="none" xmlns="http://www.w3.org/2000/svg">
<path fill-rule="evenodd" clip-rule="evenodd" d="M17.3857 6.66846C16.8739 6.23747 16.1261 6.23747 15.6143 6.66846L4.32319 16.1768L2.55182 14.0733L13.8429 4.56496C15.3784 3.27197 17.6216 3.27197 19.1571 4.56496L30.4482 14.0733L28.6768 16.1768L17.3857 6.66846Z" fill="#1672F2"/>
<path fill-rule="evenodd" clip-rule="evenodd" d="M13.8155 4.61501C15.3603 3.29093 17.6397 3.29093 19.1845 4.61501L26.0595 10.5079C26.9738 11.2915 27.5 12.4356 27.5 13.6398V26.125C27.5 28.4032 25.6532 30.25 23.375 30.25H9.625C7.34683 30.25 5.5 28.4032 5.5 26.125V13.6398C5.5 12.4356 6.0262 11.2915 6.94049 10.5079L13.8155 4.61501ZM11.6875 20.625C11.6875 18.3468 13.5343 16.5 15.8125 16.5H17.1875C19.4657 16.5 21.3125 18.3468 21.3125 20.625V26.125C21.3125 26.8844 20.6969 27.5 19.9375 27.5H13.0625C12.3031 27.5 11.6875 26.8844 11.6875 26.125V20.625Z" fill="#1672F2"/>
</svg>
