<svg width="27" height="19" viewBox="0 0 27 19" fill="none" xmlns="http://www.w3.org/2000/svg">
<path d="M0 17.6428C0.00103291 18.0024 0.143596 18.347 0.396547 18.6013C0.649497 18.8556 0.992275 18.9989 1.35 19H25.65C26.0077 18.9989 26.3505 18.8556 26.6035 18.6013C26.8564 18.347 26.999 18.0024 27 17.6428V8.14282H0V17.6428ZM4.05 12.2143H9.45V14.9285H4.05V12.2143Z" fill="#E11AE5"/>
<path d="M25.65 0H1.35C0.992275 0.00103838 0.649497 0.144356 0.396547 0.398645C0.143596 0.652934 0.00103291 0.997526 0 1.35714V4.07143H27V1.35714C26.999 0.997526 26.8564 0.652934 26.6035 0.398645C26.3505 0.144356 26.0077 0.00103838 25.65 0Z" fill="#E11AE5"/>
</svg>
