<svg width="30" height="30" viewBox="0 0 30 30" fill="none" xmlns="http://www.w3.org/2000/svg">
<path fill-rule="evenodd" clip-rule="evenodd" d="M1.875 25V2.5H3.125V25C3.125 26.0355 3.96447 26.875 5 26.875H27.5V28.125H5C3.27411 28.125 1.875 26.7259 1.875 25Z" fill="white"/>
<path fill-rule="evenodd" clip-rule="evenodd" d="M18.125 3.75C18.125 3.40482 18.4048 3.125 18.75 3.125H25C25.3452 3.125 25.625 3.40482 25.625 3.75V23.75C25.625 24.0952 25.3452 24.375 25 24.375H18.75C18.4048 24.375 18.125 24.0952 18.125 23.75V3.75ZM19.375 4.375V23.125H24.375V4.375H19.375Z" fill="white"/>
<path fill-rule="evenodd" clip-rule="evenodd" d="M11.875 8.75C11.875 8.40482 12.1548 8.125 12.5 8.125H18.75C19.0952 8.125 19.375 8.40482 19.375 8.75V23.75C19.375 24.0952 19.0952 24.375 18.75 24.375H12.5C12.1548 24.375 11.875 24.0952 11.875 23.75V8.75ZM13.125 9.375V23.125H18.125V9.375H13.125Z" fill="white"/>
<path fill-rule="evenodd" clip-rule="evenodd" d="M5.625 15C5.625 14.6548 5.90482 14.375 6.25 14.375H12.5C12.8452 14.375 13.125 14.6548 13.125 15V23.75C13.125 24.0952 12.8452 24.375 12.5 24.375H6.25C5.90482 24.375 5.625 24.0952 5.625 23.75V15ZM6.875 15.625V23.125H11.875V15.625H6.875Z" fill="white"/>
</svg>
