<svg width="30" height="30" viewBox="0 0 30 30" fill="none" xmlns="http://www.w3.org/2000/svg">
<path fill-rule="evenodd" clip-rule="evenodd" d="M1.25 25V2.5H3.75V25C3.75 25.6904 4.30964 26.25 5 26.25H27.5V28.75H5C2.92893 28.75 1.25 27.0711 1.25 25Z" fill="#1672F2"/>
<path fill-rule="evenodd" clip-rule="evenodd" d="M18.75 2.5C18.0596 2.5 17.5 3.05964 17.5 3.75V23.75C17.5 24.4404 18.0596 25 18.75 25H25C25.6904 25 26.25 24.4404 26.25 23.75V3.75C26.25 3.05964 25.6904 2.5 25 2.5H18.75Z" fill="#1672F2"/>
<path fill-rule="evenodd" clip-rule="evenodd" d="M11.25 8.75C11.25 8.05964 11.8096 7.5 12.5 7.5H18.75C19.4404 7.5 20 8.05964 20 8.75V23.75C20 24.4404 19.4404 25 18.75 25H12.5C11.8096 25 11.25 24.4404 11.25 23.75V8.75ZM13.75 10V22.5H17.5V10H13.75Z" fill="#1672F2"/>
<path fill-rule="evenodd" clip-rule="evenodd" d="M5 15C5 14.3096 5.55964 13.75 6.25 13.75H12.5C13.1904 13.75 13.75 14.3096 13.75 15V23.75C13.75 24.4404 13.1904 25 12.5 25H6.25C5.55964 25 5 24.4404 5 23.75V15ZM7.5 16.25V22.5H11.25V16.25H7.5Z" fill="#1672F2"/>
</svg>
