<svg width="26" height="26" viewBox="0 0 26 26" fill="none" xmlns="http://www.w3.org/2000/svg">
<path fill-rule="evenodd" clip-rule="evenodd" d="M12.9999 3.25004C10.3075 3.25004 8.12492 5.43265 8.12492 8.12504C8.12492 10.8174 10.3075 13 12.9999 13C15.6923 13 17.8749 10.8174 17.8749 8.12504C17.8749 5.43265 15.6923 3.25004 12.9999 3.25004ZM5.95825 8.12504C5.95825 4.23604 9.11091 1.08337 12.9999 1.08337C16.8889 1.08337 20.0416 4.23604 20.0416 8.12504C20.0416 12.014 16.8889 15.1667 12.9999 15.1667C9.11091 15.1667 5.95825 12.014 5.95825 8.12504Z" fill="white"/>
<path fill-rule="evenodd" clip-rule="evenodd" d="M13 15.1667C8.27123 15.1667 4.43223 18.1376 3.48092 21.9499C3.43279 22.1428 3.48097 22.3107 3.6189 22.4596C3.76988 22.6226 4.02696 22.75 4.33329 22.75H21.6666C21.973 22.75 22.23 22.6226 22.381 22.4596C22.5189 22.3107 22.5671 22.1428 22.519 21.9499C21.5677 18.1376 17.7287 15.1667 13 15.1667ZM1.37872 21.4253C2.59961 16.5326 7.40076 13 13 13C18.5992 13 23.4003 16.5326 24.6212 21.4253C25.1277 23.4549 23.3643 24.9167 21.6666 24.9167H4.33329C2.63564 24.9167 0.872264 23.4549 1.37872 21.4253Z" fill="white"/>
</svg>
