<svg width="33" height="33" viewBox="0 0 33 33" fill="none" xmlns="http://www.w3.org/2000/svg">
<path fill-rule="evenodd" clip-rule="evenodd" d="M17.3948 6.70297C16.8799 6.26161 16.1201 6.26161 15.6052 6.70297L8.73016 12.5958C8.4254 12.8571 8.25 13.2384 8.25 13.6398V26.125C8.25 26.8844 8.86561 27.5 9.625 27.5H23.375C24.1344 27.5 24.75 26.8844 24.75 26.125V13.6398C24.75 13.2384 24.5746 12.8571 24.2698 12.5958L17.3948 6.70297ZM13.8155 4.61501C15.3603 3.29093 17.6397 3.29093 19.1845 4.61501L26.0595 10.5079C26.9738 11.2915 27.5 12.4356 27.5 13.6398V26.125C27.5 28.4032 25.6532 30.25 23.375 30.25H9.625C7.34683 30.25 5.5 28.4032 5.5 26.125V13.6398C5.5 12.4356 6.0262 11.2915 6.94049 10.5079L13.8155 4.61501Z" fill="white"/>
<path fill-rule="evenodd" clip-rule="evenodd" d="M17.3856 6.66846C16.8738 6.23747 16.1261 6.23747 15.6143 6.66846L4.32313 16.1768L2.55176 14.0733L13.8429 4.56496C15.3783 3.27197 17.6216 3.27197 19.157 4.56496L30.4481 14.0733L28.6768 16.1768L17.3856 6.66846Z" fill="white"/>
<path fill-rule="evenodd" clip-rule="evenodd" d="M15.8125 19.25C15.0531 19.25 14.4375 19.8656 14.4375 20.625V26.125H11.6875V20.625C11.6875 18.3468 13.5343 16.5 15.8125 16.5H17.1875C19.4657 16.5 21.3125 18.3468 21.3125 20.625V26.125H18.5625V20.625C18.5625 19.8656 17.9469 19.25 17.1875 19.25H15.8125Z" fill="white"/>
</svg>
